<?xml version="1.0" encoding="utf-8"?>
<!-- Generator: Adobe Illustrator 16.0.3, SVG Export Plug-In . SVG Version: 6.00 Build 0)  -->
<!DOCTYPE svg PUBLIC "-//W3C//DTD SVG 1.1//EN" "http://www.w3.org/Graphics/SVG/1.1/DTD/svg11.dtd">
<svg version="1.1" xmlns="http://www.w3.org/2000/svg" xmlns:xlink="http://www.w3.org/1999/xlink" x="0px" y="0px" width="612px"
	 height="612px" viewBox="0 0 612 612" enable-background="new 0 0 612 612" xml:space="preserve">
<g id="bg">
	<rect width="612" height="612"/>
</g>
<g id="_x2E_..for_all">
	<g>
		<path fill-rule="evenodd" clip-rule="evenodd" fill="#D10F1E" d="M460.303,454.715c-0.24,6.425-1.631,12.63-4.197,18.492
			c-2.337,5.333-6.291,8.876-12.324,9.784c-1.919,0.289-3.795,1.002-5.615,1.717c-0.495,0.194-0.958,1.076-1.014,1.683
			c-0.184,1.991-0.111,4.005-0.28,5.999c-0.041,0.486-0.627,0.927-0.962,1.388c-0.342-0.473-0.955-0.933-0.979-1.422
			c-0.114-2.374-0.168-4.759-0.054-7.131c0.091-1.91-0.456-3.354-1.971-4.579c-2.104-1.702-3.705-3.728-3.403-6.722
			c0.057-0.572-0.196-1.251-0.494-1.771c-2.856-4.973-2.929-10.197-1.653-15.622c0.64-2.723,0.314-3.112-2.342-2.739
			c-3.819,0.536-7.591,1.412-11.408,1.962c-1.81,0.26-2.605,1.268-2.987,2.843c-0.233,0.967-0.574,1.953-0.563,2.928
			c0.046,4.572-0.741,9.143,0.449,13.727c0.72,2.773-0.013,5.485-2.225,7.561c-1.363,1.279-2.44,1.31-3.385-0.254
			c-0.734-1.216-1.342-2.773-1.289-4.151c0.207-5.441,0.695-10.871,1.083-16.306c0.053-0.748-0.032-1.551,0.214-2.233
			c0.567-1.574,0.688-2.659-1.173-3.649c-1.267-0.676-1.899-2.302-1.332-3.964c0.482-1.413,0.682-3.045,1.539-4.178
			c1.509-1.995,1.625-4.156,1.426-6.392c-0.091-1.026-0.504-2.167-1.131-2.978c-2.928-3.784-1.561-8.249,3.025-9.507
			c0.598-0.164,1.237-0.355,1.836-0.303c6.126,0.539,11.824-1.746,17.709-2.738c2.204-0.371,3.979,0.181,5.695,1.133
			c1.842,1.023,1.947,2.791,0.146,3.834c-1.44,0.834-3.223,1.172-4.9,1.486c-4.398,0.83-8.819,1.547-13.238,2.266
			c-2.373,0.387-3.494,2.007-3.687,4.126c-0.247,2.731-0.134,5.497-0.158,8.247c-0.015,1.655,1.021,2.232,2.452,2.065
			c2.468-0.288,4.92-0.718,7.378-1.091c3.15-0.478,6.175-2.086,9.544-0.792c0.53,0.205,1.859-0.722,2.318-1.443
			c2.012-3.163,5.14-5.05,7.933-7.324c0.483-0.394,1.179-0.69,1.413-1.2c1.328-2.888,3.428-2.578,5.969-1.871
			c8.914,2.48,11.833,8.239,12.625,16.492C460.375,452.954,460.303,453.838,460.303,454.715z M434.167,459.656
			c-0.009,5.995,2.013,10.088,5.853,13.364c1.092,0.933,2.104,0.951,3.438,0.638c5.808-1.367,8.406-5.42,9.327-10.891
			c0.476-2.824,0.695-5.691,1.185-8.513c0.632-3.64-0.722-6.649-2.992-9.231c-2.276-2.589-8.198-2.299-10.119,0.2
			c-1.115,1.45-2.467,2.721-3.563,4.185c-0.875,1.167-1.862,2.421-2.198,3.784C434.504,455.596,434.371,458.112,434.167,459.656z"/>
		<path fill-rule="evenodd" clip-rule="evenodd" fill="#D10F1E" d="M560.142,464.212c0.287-3.48,0.779-6.96,0.799-10.441
			c0.017-2.97-0.235-6.003-0.873-8.896c-0.698-3.174,0.208-5.955,1.313-8.718c0.836-2.085,5.897-4.312,7.983-3.71
			c1.698,0.488,2.88,1.59,2.998,3.436c0.079,1.235,0.07,2.521-0.182,3.726c-0.718,3.412-1.613,6.786-2.36,10.192
			c-0.18,0.82-0.261,1.768-0.032,2.555c1.362,4.702,0.491,9.397,0.132,14.104c-0.248,3.235-0.549,6.479-0.551,9.719
			c-0.003,3.198,1.987,4.714,5.11,4.15c2.578-0.466,5.127-1.1,7.71-1.529c2.517-0.421,5.024-0.424,7.108,1.408
			c2.099,1.847,2.065,3.592-0.15,5.235c-1.75,1.298-3.664,1.843-5.947,1.583c-3.599-0.407-7.238-0.544-10.77,0.652
			c-2.059,0.698-3.976,1.491-4.43,4.006c-0.129,0.716-0.436,1.532-0.937,2.015c-0.742,0.713-1.903,1.78-2.574,1.592
			c-0.989-0.279-1.74-1.5-2.512-2.39c-0.2-0.231-0.153-0.73-0.126-1.1c0.157-2.048-1.067-3.021-2.821-3.32
			c-1.562-0.265-3.604,1.529-3.876,3.239c-0.569,3.564-1.085,7.137-1.643,10.703c-0.051,0.315-0.243,0.61-0.37,0.915
			c-0.197-0.375-0.563-0.748-0.566-1.125c-0.022-3.058,0.148-6.122,0.012-9.173c-0.117-2.629-1.871-4.036-4.327-3.094
			c-3.269,1.254-6.612,1.199-9.954,1.515c-3.504,0.331-6.092-2.904-4.481-5.967c0.827-1.571,0.827-3.048,0.983-4.643
			c0.514-5.213,0.715-10.501,1.788-15.604c1.521-7.237,1.177-14.326,0.282-21.572c-0.382-3.082,0.562-6.387,1.267-9.508
			c0.218-0.966,1.534-2.096,2.537-2.324c0.653-0.148,1.905,1.037,2.425,1.903c0.735,1.228,1.43,2.706,1.456,4.091
			c0.059,3.108-0.309,6.224-0.495,9.337c-0.06,0.996-0.351,2.066-0.095,2.979c0.741,2.633,0.159,5.153-0.1,7.763
			c-0.665,6.702-1.132,13.429-1.477,20.156c-0.189,3.691,0.007,3.736,3.473,3.022c1.707-0.352,3.446-0.681,5.061-1.304
			c2.059-0.793,4.064-1.216,6.13-0.268c1.054,0.484,1.625,0.336,1.853-0.853c0.488-2.563,1.174-5.101,1.46-7.684
			c0.246-2.227,0.051-4.501,0.051-6.754C560.33,464.226,560.236,464.219,560.142,464.212z"/>
		<path fill-rule="evenodd" clip-rule="evenodd" fill="#D10F1E" d="M468.603,476.26c0,1.628,0.097,3.262-0.024,4.881
			c-0.16,2.138-1.737,3.67-3.533,3.642c-2.218-0.036-3.532-1.417-3.311-4.06c0.531-6.343,1.345-12.662,1.882-19.005
			c0.516-6.091,0.942-12.194,1.136-18.302c0.041-1.303-0.939-2.745-1.73-3.938c-0.798-1.199-2.769-2.153-1.915-3.687
			c0.98-1.759,2.331-3.688,4.752-3.856c4.602-0.32,9.206-0.622,13.814-0.801c9.375-0.364,13.129,5.639,13.659,12.185
			c0.379,4.688-0.492,9.033-5.169,11.571c-0.213,0.115-0.39,0.318-0.547,0.512c-3.09,3.798-7.157,6.189-11.616,7.98
			c-0.941,0.379-1.246,0.648-0.457,1.488c3.851,4.097,7.703,8.194,11.507,12.335c1.519,1.654,2.958,3.386,4.345,5.152
			c0.528,0.672,0.932,1.504,1.174,2.328c0.55,1.869-0.76,4.222-2.586,4.856c-1.298,0.451-3.001-0.527-3.476-2.64
			c-1.267-5.644-5.375-9.111-9.229-12.827c-1.341-1.293-2.553-2.72-3.895-4.012c-0.953-0.919-1.781-2.425-3.396-1.855
			c-1.877,0.662-1.234,2.525-1.385,3.923c-0.146,1.361-0.031,2.75-0.031,4.128C468.582,476.26,468.592,476.26,468.603,476.26z
			 M471.548,452.28c0,0.708-0.076,1.837,0.018,2.952c0.154,1.836,0.736,2.337,2.368,1.632c4.267-1.843,8.193-4.286,11.037-8.041
			c1.629-2.153,1.19-4.726,0.588-7.201c-0.579-2.38-2.746-2.221-4.437-2.788c-1.061-0.355-2.158-0.648-3.263-0.807
			c-3.076-0.445-5.295,1.424-5.526,4.531C472.102,445.661,471.834,448.762,471.548,452.28z"/>
		<path fill-rule="evenodd" clip-rule="evenodd" fill="#D10F1E" d="M528.089,466.362c-0.013,0.25,0.057,0.543-0.049,0.744
			c-2.116,4.019-0.586,8.037,0.139,11.989c0.535,2.921,1.644,5.735,2.436,8.613c0.261,0.946,0.501,1.954,0.446,2.917
			c-0.087,1.547-1.131,2.536-2.585,2.829c-1.589,0.32-2.56-0.701-3.255-2.003c-2.327-4.353-3.075-9.064-3.153-13.928
			c-0.009-0.501-0.019-1.003-0.056-1.502c-0.389-5.175-1.925-5.822-7.003-5.488c-4.947,0.325-6.304,3.066-6.932,7.062
			c-0.214,1.357-0.397,2.718-0.634,4.07c-0.106,0.614-0.259,1.229-0.473,1.814c-0.72,1.972-3.404,4.038-4.749,3.695
			c-1.253-0.319-2.34-3.099-1.803-5.324c0.585-2.42,1.356-4.811,2.252-7.134c0.64-1.66,0.748-2.848-1.212-3.571
			c-1.261-0.466-2.346-1.453-1.82-2.834c0.337-0.887,1.466-1.976,2.336-2.069c3.178-0.338,3.814-2.414,4.57-5.021
			c2.33-8.034,5.224-15.905,6.581-24.206c0.114-0.699,0.535-1.412,0.985-1.98c1.666-2.105,3.495-1.946,4.639,0.418
			c0.43,0.888,0.821,1.893,0.858,2.857c0.232,6.05,2.471,11.663,3.675,17.497c0.177,0.852,0.298,1.738,0.274,2.604
			c-0.06,2.201,0.401,3.89,2.916,4.527C528.138,463.36,528.102,464.953,528.089,466.362z M514.528,464.332c0,0.004,0,0.008,0,0.013
			c0.501,0,1.003,0.028,1.502-0.005c2.804-0.186,3.162-0.73,2.536-3.503c-0.632-2.792-1.153-5.609-1.784-8.401
			c-0.117-0.52-0.52-0.974-0.79-1.459c-0.306,0.494-0.696,0.955-0.903,1.487c-1.133,2.903-2.209,5.829-3.328,8.738
			c-1.182,3.071-1.193,3.066,2.018,3.129C514.028,464.336,514.279,464.332,514.528,464.332z"/>
		<circle fill-rule="evenodd" clip-rule="evenodd" fill="#D10F1E" cx="389.747" cy="481.33" r="2.915"/>
		<circle fill-rule="evenodd" clip-rule="evenodd" fill="#D10F1E" cx="380.626" cy="482.176" r="2.915"/>
		<circle fill-rule="evenodd" clip-rule="evenodd" fill="#D10F1E" cx="368.309" cy="481.33" r="3.761"/>
	</g>
</g>
<g id="justice_gal">
	<path fill="#FFFFFF" d="M341.565,544.473c-3.596-3.463-6.352-6.84-8.34-10.063c-5.041-8.178-6.093-17.187-5.465-31.059
		c0.987-21.696,3.639-46.242,2.589-69.303c-0.716-15.777-4.273-29.408-7.765-41.984c-2.682-9.664-5.501-19.466-8.05-29.044
		c-0.897-3.368-2.246-6.711-2.589-10.065c-0.547-5.337,0.223-10.295-2.588-13.228c-0.438-1.063,0.289-2.459,0.289-5.463
		c1.508-1.51,3.232-6.49,2.586-13.229c-2.058,1.968-3.441,4.61-6.039,6.039c6.029-5.668,7.837-18.295,6.039-29.907
		c-3.025,1.578-8.245,4.98-13.229,4.603c10.102-3.171,17.856-9.458,17.83-21.281c-0.014-6.084-2.068-12.224-3.164-18.691
		c-0.863-5.106-1.182-9.583-1.149-15.241c0.006-1.054,1.171-4.227-1.726-3.449c-3.156,0.437-4.198-1.204-6.613-1.151
		c-1.412-0.228-0.918,1.398-1.151,2.014c-2.302,6.074-4.786,10.476-8.915,14.666c-8.797,8.926-23.541,12.131-35.657,17.828
		c-6.177,2.904-10.768,6.89-15.239,11.215c3.381-6.711,9.481-10.458,16.389-13.804c16.285-7.883,35.07-11.489,40.261-29.905
		c-3.325-0.162-5.673,0.654-8.628,0.862c-0.566-1.925-0.916-4.069-0.861-6.615c10.338-2.407,12.887-12.609,16.102-22.142
		c0.729-0.729,0.864-2.129,0.864-3.163c-0.204-1.066,0.491-1.234,0.288-2.301c0.602-1.445,0.533-1.595,0.533-4.677
		c0-0.335,0.445-1.312,0.616-2.224c0.602-2.177,0.462-2.961,1.149-4.603c4.408-9.252-2.704-17.229-12.077-17.253
		c-3.893-2.761-9.314-4.313-14.952-4.313c-12.785,0-22.254,7.881-21.855,21.279c-2.59,3.28,1.132,7.579,0,12.941
		c4.091,4.564-0.611,7.585-3.738,11.214c-2.186,2.533-4.795,5.151-4.315,8.628c0.329,2.364,2.271,2.85,3.74,4.601
		c-1.446,4.947,1.498,7.856,4.601,9.201c-2.201,2.772-3.273,5.164-5.752,7.189c-6.09,4.98-14.184,5.817-20.128,10.064
		c-5.39,3.851-10.247,10.06-10.929,19.554c-0.342,4.783,0.51,7.53-0.576,12.078c-0.912,3.836-3.262,8-4.6,12.654
		c-1.279,4.446-2.309,9.619-2.588,14.666c-0.304,5.471-0.199,10.134-2.588,13.802c-2.021,3.104-5.539,5.461-8.053,8.915
		c-2.334,3.21-4.655,6.898-6.612,10.64c-3.946,7.536-5.94,17.321-10.929,23.58c-2.021,2.536-4.336,3.551-6.613,5.176
		c-2.981,2.128-5.037,4.506-7.765,6.327c1.008-1.579,1.849-3.326,2.874-4.888c-3.486-3.319-6.977-6.634-10.926-9.491
		c1.16-5.531-1.945-9.458-6.039-10.063c-11.602-1.718-12.471,16.912-0.575,15.527c2.88,5.842,6.521,10.926,10.353,15.817
		c-1.689,4.601,2.417,13.431,6.613,13.515c1.676,0.034,2.318-1.374,4.025-2.012c1.196,0.912,2.332,1.886,3.451,2.874
		c-4.83,4.373-9.775,8.628-14.953,12.654c-8.098-1.947-7.799,9.802-0.861,8.914c2.312-0.297,3.814-2.166,3.736-5.465
		c5.315-2.641,10.002-5.909,15.242-8.627c30.587,34.874,60.143,72.01,93.746,103.524c4.784,4.485,9.842,8.779,14.379,13.515
		c-16.733-11.954-32.719-25.818-46.299-40.835c-3.938-4.353-7.924-9.496-11.79-13.515c-0.423-0.438-1.664-1.904-1.725-0.862
		c-1.419,12.838-5.28,26.336-9.203,37.383c-2.51,7.067-7.218,17.65,1.149,21.28c6.152-11.198,9.858-24.843,11.791-40.259
		c0.382,21.601-5.229,37.213-13.803,50.035c-0.982,1.468-3.393,4.591-3.164,6.04c0.281,1.766,3.037,2.457,5.752,3.738
		c16.489,7.783,57.055,7.116,66.326,2.675c7.922,5.108,17.203,5.186,22.119,5.089c6.621-0.131,13.832-0.341,13.927-5.177
		c0.055-2.681-2.39-5.518-5.563-7.826c1.737,0.456,3.394,0.974,4.987,1.501c4.219,1.396,8.011,3.652,12.941,3.449
		c3.067-0.124,7.045-1.667,7.188-4.313C350.044,551.737,344.462,547.263,341.565,544.473z M251.27,338.29
		c-4.518,7.854-10.816,14.604-15.528,23.004c-4.591,8.187-7.55,18.444-8.34,30.194c-1.505,22.465,4.551,40.459,7.478,59.813
		c-0.337,0.874-1.706-0.999-2.3-1.725c-10.801-13.17-22.428-27.583-33.646-40.547c3.086-4.967,7.428-8.679,10.641-13.517
		c7.357,2.059,7.818-8.748,1.727-8.914c-2.686-0.072-4.952,1.832-4.601,5.753c-4.968,4.043-9.799,8.222-14.667,12.364
		c-1.364-0.937-1.631-2.971-2.875-4.025c4.355-4.442,6.523-11.77,10.353-16.968c2.609-3.546,5.688-6.686,8.625-10.353
		c16.852-21.028,29.593-45.076,34.51-78.791c1.03,9.367,8.084,16.905,7.476,27.031c-0.236,3.91-2.334,8.806,1.727,10.639
		C250.544,333.862,250.673,336.009,251.27,338.29z M460.993,276.119c0-3.185-12.441-30.886-18.692-46.297
		c1.836-2.516,3.239-4.188,2.876-7.189c-0.732-6.069-10.021-6.09-11.214-0.862c-0.554,2.421,0.708,4.188,0.86,5.463
		c-19.283,1.356-23.888-14.448-37.095-20.129c1.929-3.368,0.483-6.376-1.149-8.052c-0.973-0.999-2.07-1.523-2.877-2.302
		c0.082-4.257,0.164-8.514,0.245-12.772c5.107-1.707,9.892-4.494,11.744-7.013c2.291-3.113,5.139-12.162,2.303-14.954
		c-2.587-2.544-8.104-0.388-12.366-0.574c0.965-5.192-5.545-6.363-7.189-2.876c-0.732,1.55-0.057,3.057-0.287,5.464
		c-7.818,3.085-11.379,9.263-15.529,16.39c-7.195,12.357-14.492,25.381-20.129,38.823c-1.185,2.822-1.848,5.826-3.281,8.063
		c-0.314-0.022-0.622-0.036-0.943-0.067c1.08-1.219,1.309-3.291,1.149-5.75c-2.105-5.093-10.7-4.521-11.214,1.437
		c-0.278,3.228,1.545,4.632,2.875,7.189c-0.446,1.064-0.895,2.145-1.344,3.222c-8.335,3.572-16.782,6.897-24.34,10.925
		c-0.613,7.694-0.066,15.975,1.727,22.143c3.748-1.127,7.305-2.476,10.703-4.014c-1.051,2.581-2.1,5.153-3.139,7.696
		c-0.813,1.996-2.123,4.289-2.3,5.75c-0.588,4.894,2.271,10.345,5.176,13.805c3.15,3.748,7.554,6.296,11.79,7.189
		c12.846,2.707,22.381-5.427,25.307-15.816c0.369-1.414,0.575-2.881,0.575-4.89c0-1.146-1.32-3.721-2.014-5.463
		c-3.272-8.248-6.938-17.151-10.303-25.521c1.368-1.133,2.749-2.213,4.176-3.18c1.894-1.285,4.079-2.087,6.038-3.451
		c4.067-2.829,7.007-7.544,9.333-12.723c6.12-2.252,12.776-4.4,19.801-4.298c16.579,0.238,26.282,11.18,43.422,10.639
		c-4.942,12.62-10.415,25.733-15.528,38.246c-0.811,1.984-1.84,4.062-2.014,5.751c-0.578,5.692,2.728,11.575,6.039,14.953
		c11.361,11.589,32.473,5.605,36.43-10.063C461.043,279.712,460.993,278.164,460.993,276.119z M362.646,273.244
		c-10.36-3.186-27.47-3.669-37.383,0.288c1.681-4.155,3.583-8.352,5.565-12.577c3.894-1.953,7.565-4.167,11.024-6.636
		c3.037-2.166,5.832-4.688,8.627-7.112C354.581,255.842,358.572,264.584,362.646,273.244z M385.651,207.392
		c-3.133,1.27-5.814,3.136-8.33,5.222c1.381-4.148,2.745-8.324,3.929-12.642c1.319-4.826,2.11-9.858,4.024-14.379
		c1.323,0,2.741-0.157,4.193-0.432c0.071,3.965,0.14,7.977,0.209,11.878C385.972,198.039,383.376,203.077,385.651,207.392z
		 M390.54,206.816c-1.26-0.354-3.537-4.504,0-5.752C396.532,198.953,395.598,208.238,390.54,206.816z M420.733,273.244
		c6.15-13.405,12.547-26.564,18.693-39.971c6.44,13.208,12.499,26.8,18.979,39.971C448.812,270.156,431.167,269.717,420.733,273.244
		z"/>
</g>
<g id="Medicare">
	<g>
		<path fill-rule="evenodd" clip-rule="evenodd" fill="#D10F1E" d="M483.134,112.813l45.03,27.182l-7.151-17.633l32.769,12.105
			l55.311,76.577L463.908,114.78V60.104l-20.072-20.846c0,0,61.991,34.372,70.027,38.63l-19.604-2.695l13.859,9.458l-24.985-8.273
			V86.5l30.199,13.474l11.564,14.806l-41.764-17.592V112.813z"/>
		<path fill="#D10F1E" d="M457.313,114.667h-20.02l-7.669-19.046v19.046h-17.713V53.272h28.204c5.503,0,9.915,2.236,13.241,6.707
			c2.637,3.784,3.956,7.97,3.956,12.554c0,2.867-0.803,5.791-2.408,8.771c-2.063,3.555-4.815,5.847-8.254,6.878L457.313,114.667z
			 M438.568,74.425c1.604,0,2.407-0.917,2.407-2.751c0-1.72-0.803-2.58-2.407-2.58h-8.943v5.331H438.568z"/>
		<path fill="#D10F1E" d="M403.486,114.667h-18.745V98.33l-19.95,16.337h-20.292l35.083-61.395h23.904V114.667z M384.741,83.669
			l-0.009-7.87l-7.815,12.785L384.741,83.669z"/>
		<path fill="#D10F1E" d="M342.607,104.005c-2.407,3.096-5.675,5.734-9.803,7.911c-4.471,2.179-9.002,3.268-13.586,3.268
			c-8.485,0-15.735-3.066-21.754-9.2c-6.019-6.132-9.029-13.441-9.029-21.927c0-8.599,3.01-15.964,9.029-22.099
			c6.02-6.132,13.269-9.201,21.754-9.201c8.256,0,15.592,3.383,22.013,10.147l-12.897,11.178c-1.95-2.292-4.931-3.44-8.942-3.44
			c-3.556,0-6.565,1.349-9.029,4.042c-2.467,2.695-3.641,5.877-3.525,9.545c0.112,3.555,1.462,6.594,4.042,9.114
			c2.579,2.523,5.646,3.727,9.2,3.612c4.584-0.113,7.68-1.661,9.286-4.644L342.607,104.005z"/>
		<path fill="#D10F1E" d="M281.558,114.667h-18.745V53.272h18.745V114.667z"/>
		<path fill="#D10F1E" d="M230.825,114.667h-20.637V53.272h20.637c8.024,0,14.446,3.268,19.261,9.803
			c4.356,5.963,6.535,13.185,6.535,21.668c0,8.142-2.123,15.021-6.364,20.637C245.556,111.572,239.08,114.667,230.825,114.667z
			 M229.622,97.298c2.98,0,5.331-1.48,7.051-4.444c1.604-2.62,2.408-5.81,2.408-9.572c0-3.874-0.833-7.207-2.494-9.999
			c-1.663-2.792-3.984-4.189-6.964-4.189h-1.72v28.204H229.622z"/>
		<path fill="#D10F1E" d="M201.59,114.667h-45.4V53.272h45.4v15.822h-27.687v5.331h27.687v17.37h-27.687v5.503h27.687V114.667z"/>
		<path fill-rule="evenodd" clip-rule="evenodd" fill="#D10F1E" d="M100.337,77.85l-17.33,2.877l64.337-41.469l-24.685,26.798
			l25.433-12.286l0.143,60.832L113.833,138l15.178-60.053l-12.345,10.705l-1.609-10.904c-15.932,24.644-31.764,49.135-47.878,74.064
			l34.083-7.604L2.908,204.71L100.337,77.85z"/>
	</g>
</g>
</svg>
