<?xml version="1.0" encoding="utf-8"?>
<!-- Generator: Adobe Illustrator 16.0.3, SVG Export Plug-In . SVG Version: 6.00 Build 0)  -->
<!DOCTYPE svg PUBLIC "-//W3C//DTD SVG 1.1//EN" "http://www.w3.org/Graphics/SVG/1.1/DTD/svg11.dtd">
<svg version="1.1" id="Layer_1" xmlns="http://www.w3.org/2000/svg" xmlns:xlink="http://www.w3.org/1999/xlink" x="0px" y="0px"
	 width="1080px" height="1080px" viewBox="0 0 1080 1080" enable-background="new 0 0 1080 1080" xml:space="preserve">
<g id="milo">
	<path d="M339.853,340.098c0.35,8.153,0.808,16.304,0.974,24.461c0.041,2.028-0.5,4.254-1.401,6.079
		c-1.975,3.999-6.818,4.403-9.421,0.754c-1.176-1.647-1.97-3.845-2.159-5.866c-0.485-5.215-0.595-10.469-0.755-15.711
		c-0.432-14.177-0.896-28.353-1.162-42.533c-0.083-4.453,0.35-8.924,0.692-13.375c0.305-3.955,1.492-5.694,3.626-5.813
		c2.344-0.131,5.842,2.3,6.563,4.968c0.653,2.416,1.071,4.944,1.203,7.443c0.697,13.193,1.271,26.393,1.888,39.59
		C339.885,340.096,339.869,340.097,339.853,340.098z"/>
	<path d="M589.316,329.868c0.241,10.884,0.526,21.768,0.685,32.653c0.027,1.898-0.279,3.864-0.803,5.692
		c-0.581,2.029-2.159,3.171-4.349,3.289c-2.303,0.125-4.575-0.404-5.291-2.723c-1.011-3.284-1.979-6.734-2.042-10.13
		c-0.363-20.026-0.46-40.057-0.644-60.086c-0.021-2.14-0.029-4.279-0.027-6.418c0.001-0.972-0.112-1.977,0.094-2.907
		c0.551-2.489,1.129-5.281,4.209-5.611c2.799-0.3,4.979,1.437,5.805,3.997c0.997,3.09,1.894,6.363,1.963,9.576
		c0.237,10.886,0.091,21.781,0.091,32.672C589.11,329.87,589.214,329.869,589.316,329.868z"/>
	<path d="M388.595,331.32c-0.284,10.884-0.536,21.77-0.882,32.652c-0.061,1.925-0.307,3.898-0.843,5.74
		c-0.623,2.141-1.979,3.789-4.478,4.005c-2.597,0.225-4.78-0.735-5.769-3.072c-0.882-2.086-1.472-4.458-1.5-6.713
		c-0.095-7.37,0.209-14.745,0.206-22.117c-0.008-15.36-0.161-30.719-0.155-46.079c0.002-5.181,1.723-7.619,5.043-7.817
		c3.746-0.225,7.513,3.445,7.976,7.812c0.082,0.77,0.023,1.555,0.024,2.332c0,11.084,0,22.169,0,33.253
		C388.345,331.317,388.47,331.319,388.595,331.32z"/>
	<path d="M782.574,305.3c-1.026,11.394-2.242,22.776-3.019,34.187c-0.553,8.125-0.539,16.29-0.729,24.438
		c-0.106,4.556-2.354,7.211-6.421,7.417c-2.912,0.147-4.45-0.817-5.113-3.621c-0.398-1.682-0.565-3.478-0.479-5.204
		c0.403-7.941,0.75-15.893,1.463-23.81c1.012-11.21,2.628-22.347,1.363-33.684c-0.599-5.378-0.175-10.871-0.203-16.311
		c-0.003-0.582,0.027-1.167,0.088-1.746c0.389-3.789,1.863-6.063,4.081-6.315c2.52-0.286,6.354,2.128,7.315,4.863
		c0.504,1.435,0.729,3.03,0.755,4.558c0.09,5.05,0.033,10.103,0.033,15.154C782,305.251,782.287,305.275,782.574,305.3z"/>
	<path d="M690.099,325.186c-0.283,10.863-0.509,21.728-0.901,32.587c-0.075,2.074-0.545,4.236-1.323,6.157
		c-0.854,2.109-2.843,3.581-5.109,2.965c-1.656-0.45-3.517-1.767-4.346-3.229c-0.99-1.747-1.344-4.062-1.347-6.132
		c-0.029-20.958,0.038-41.916,0.166-62.872c0.018-2.898,0.456-5.8,0.798-8.688c0.295-2.5,1.439-4.479,4.098-5.011
		c2.013-0.402,5.217,1.429,6.04,3.729c0.838,2.343,1.579,4.87,1.617,7.327c0.168,11.053,0.073,22.109,0.073,33.164
		C689.941,325.185,690.02,325.185,690.099,325.186z"/>
	<path d="M734.164,324.091c-0.512,11.071-1.012,22.142-1.554,33.211c-0.066,1.347-0.18,2.75-0.614,4.007
		c-0.784,2.259-1.947,4.309-4.779,4.439c-2.335,0.107-4.969-1.565-5.568-4.307c-0.867-3.966-1.407-8.04-1.65-12.094
		c-0.222-3.674,0.044-7.388,0.267-11.074c0.985-16.294,2.029-32.585,3.065-48.876c0.061-0.968,0.161-1.945,0.363-2.892
		c0.518-2.437,1.641-4.396,4.38-4.791c2.566-0.37,5.652,1.328,6.422,4.001c0.632,2.197,0.828,4.599,0.773,6.899
		c-0.239,10.496-0.639,20.987-0.979,31.481C734.247,324.094,734.206,324.092,734.164,324.091z"/>
	<path d="M536.924,330.21c0,10.284,0.089,20.57-0.07,30.852c-0.033,2.232-0.718,4.545-1.541,6.648
		c-0.875,2.232-2.927,2.878-5.284,2.722c-2.585-0.171-3.892-1.829-4.333-4.019c-0.728-3.603-1.537-7.271-1.569-10.917
		c-0.19-21.342-0.174-42.685-0.201-64.028c-0.003-2.595,0.296-5.145,3.271-6.172c2.52-0.87,5.84,0.392,7.271,3.43
		c1.204,2.56,2.085,5.508,2.172,8.313c0.313,10.081,0.23,20.173,0.297,30.261c0.007,0.971,0,1.941,0,2.911
		C536.932,330.21,536.928,330.21,536.924,330.21z"/>
	<path d="M422.387,327.147c0-10.117-0.016-20.232,0.013-30.348c0.006-2.137,0.083-4.282,0.291-6.407
		c0.197-2.04,0.981-4.227,3.258-4.145c1.711,0.061,4.222,1.02,4.887,2.333c1.449,2.866,2.274,6.165,2.746,9.376
		c0.476,3.246,0.163,6.601,0.288,9.905c0.667,17.685,1.411,35.366,1.994,53.053c0.074,2.281-0.43,4.64-1.016,6.87
		c-0.936,3.564-2.604,4.884-5.581,4.936c-3.118,0.054-5.651-1.53-6.393-4.868c-0.75-3.378-1.11-6.921-1.058-10.383
		c0.15-10.106,0.593-20.208,0.921-30.312C422.62,327.153,422.503,327.15,422.387,327.147z"/>
	<path d="M485.258,325.501c0,9.9,0.074,19.803-0.052,29.702c-0.031,2.476-0.418,5.031-1.149,7.393
		c-1.123,3.627-3.741,5.511-6.169,4.995c-2.271-0.483-3.784-2.838-3.983-6.416c-0.391-6.975-0.833-13.95-1.058-20.931
		c-0.491-15.322-0.875-30.647-1.265-45.972c-0.053-2.129-0.17-4.319,0.23-6.386c0.834-4.291,4.92-5.75,8.449-3.146
		c2.532,1.868,3.488,4.501,3.587,7.597c0.357,11.056,0.788,22.111,1.19,33.166C485.114,325.501,485.186,325.501,485.258,325.501z"/>
	<path d="M639.739,325.81c-0.423,10.483-0.813,20.967-1.299,31.447c-0.09,1.916-0.284,3.917-0.934,5.695
		c-0.862,2.368-2.829,3.767-5.446,3.557c-2.346-0.187-3.99-1.621-4.562-3.906c-0.464-1.865-0.841-3.821-0.812-5.73
		c0.211-13.986,0.449-27.973,0.855-41.954c0.227-7.764,0.754-15.521,1.227-23.276c0.104-1.73,0.309-3.526,0.885-5.144
		c1.315-3.704,4.302-4.349,7.297-1.69c3.04,2.698,3.592,6.387,3.547,10.12c-0.093,7.574-0.392,15.146-0.63,22.719
		c-0.086,2.718-0.241,5.435-0.365,8.152C639.583,325.803,639.66,325.807,639.739,325.81z"/>
	<path d="M296.824,325.767c-0.161,11.684-0.07,23.329,2.494,34.831c0.417,1.872,0.396,3.875,0.339,5.811
		c-0.125,4.233-1.552,6.138-4.51,6.339c-2.747,0.187-4.617-1.251-5.457-4.973c-1.068-4.733-1.989-9.528-2.52-14.346
		c-0.638-5.79-0.872-11.629-1.148-17.453c-0.506-10.682-0.987-21.366-1.318-32.054c-0.096-3.085,0.005-6.264,0.652-9.263
		c0.751-3.48,3.905-4.646,6.682-2.42c1.684,1.351,3.065,3.55,3.69,5.635c0.824,2.748,0.988,5.754,1.053,8.658
		C296.922,312.94,296.824,319.354,296.824,325.767z"/>
	<path d="M546.826,663.436c-0.022,2.172-2.212,4.398-4.398,4.475c-2.743,0.095-5.354-2.194-5.483-4.805
		c-0.127-2.589,2.142-5.045,4.533-4.906C543.762,658.331,546.847,661.352,546.826,663.436z"/>
	<path d="M517.62,668.193c-2.5-0.07-4.605-2.627-4.644-5.642c-0.032-2.539,1.833-4.612,4.104-4.564
		c2.431,0.052,5.057,2.764,5.143,5.312C522.308,665.833,520.025,668.261,517.62,668.193z"/>
	<path d="M376.014,564.018c-8.057-0.043-13.873-6.478-13.736-15.589c0.085-5.747,2.375-10.582,7.395-13.747
		c6.324-3.988,14.846-1.494,18.368,5.453c3.292,6.494,2.403,12.828-1.519,18.738C384.206,562.361,380.389,564.04,376.014,564.018z"
		/>
	<path d="M680.112,563.965c-7.587-0.248-13.203-5.354-13.679-12.354c-0.207-3.057-0.213-6.333,0.666-9.212
		c1.785-5.847,6.009-9.768,12.174-10.29c6.378-0.541,11.377,2.801,14.373,8.233c2.895,5.246,2.859,11.088-0.492,16.131
		C690.063,561.127,685.757,564.524,680.112,563.965z"/>
	<path fill="#EC1F27" d="M1014.336,734.091c1.311,4.26,1.44,4.319,0.29,7.149c-1.59,3.96-3.729,7.72-5.069,11.76
		c-5.16,15.48-10.149,31.03-15.101,46.591c-2.41,7.59-4.609,15.25-6.851,22.891c-3.109,10.63-6.329,21.239-9.189,31.938
		c-1.5,5.62-2.26,11.44-3.449,17.15c-0.851,4.029-1.979,4.76-6.091,4.25c-2.31-0.29-4.619-0.91-6.93-0.92
		c-8.36-0.021-16.72,0.109-25.08,0.25c-13.59,0.239-26.609,3.09-38.979,8.739c-4.949,2.271-9.899,4.54-14.801,6.91
		c-15.189,7.359-24.898,18.869-27.31,36c-0.71,5.04-2.591,9.54-6.11,13.58c-2.729,3.141-4.609,7.149-6.31,11.029
		c-2.801,6.399-2.011,13.38-2.391,20.141c-0.069,1.239,0.479,3.021,1.38,3.71c3.84,2.931,2.931,6.34,1.551,9.96
		c-0.83,2.181-1.681,4.359-2.341,6.601c-1.399,4.8-1.62,9.569,0.851,14.149c2.819,5.21,3.449,10.521,1.689,16.33
		c-2.301,7.561,0.449,13.939,6.34,18.641c9.07,7.239,19.16,7.739,29.631,3.17c4.449-1.94,8.72-4.47,13.34-5.82
		c11.93-3.47,23.99-6.479,36.04-9.54c1.561-0.398,3.319-0.06,5.939-0.06c-4.399,17.18-7.54,33.8-10.979,51.189L540.625,1080
		c0-9.49,0.802-19.08,0.331-28.159c-0.729-14.36-1.88-28.7-3.16-43.03c-0.529-6,1.98-10.101,6.551-13.351
		c1.75-1.229,3.67-2.21,5.439-3.399c16.94-11.399,33.891-22.771,50.79-34.229c14.641-9.93,28.771-20.689,43.91-29.8
		c24.33-14.641,48.771-29.12,72.21-45.141c31.561-21.569,65.04-39.721,99.061-56.92c26.71-13.511,53.681-26.529,80.63-39.58
		c15.909-7.699,31.909-15.279,48.069-22.449c21.84-9.711,44.511-17.49,65.71-28.681
		C1011.416,734.601,1012.956,734.46,1014.336,734.091z"/>
	<path fill="#EC1F27" d="M104.696,869.2c-5.43,2.5-6.51,1.819-8.35-3.811c-4.7-14.409-9.54-28.779-14.3-43.17
		c-5.55-16.801-11.1-33.59-16.56-50.42c-0.41-1.28-0.05-2.819-0.05-5.16c3.23,1.29,5.72,2.171,8.12,3.271
		c9.19,4.181,18.26,8.65,27.55,12.62c14.85,6.351,29.36,13.359,43.34,21.47c9.43,5.471,19.16,10.25,29.33,14.28
		c12.27,4.88,24.27,10.351,35.48,17.561c16.03,10.329,32.86,19.3,50.5,26.601c15.13,6.26,29.67,13.58,43.64,22.13
		c5.79,3.55,12.01,6.39,18.09,9.45c12.14,6.119,24.64,11.6,36.41,18.359c43.51,24.97,86.75,50.409,130.18,75.521
		c9.229,5.34,18.26,11.21,28.84,13.79c4.34,1.06,5.74,4.29,5.9,8.319c0.17,4.271-0.19,8.62,0.449,12.819
		c2.131,14.09,2.42,28.28,2.91,42.471c0.17,4.779,1.091,10.029,1.371,14.699l-369.551-0.09c0.44-0.87,0.77-1.22,0.76-1.55
		c-0.28-11.28-0.3-22.591-3.23-33.61c-1.81-6.76-3.87-13.449-5.56-20.239c-0.37-1.5-0.16-3.569,0.63-4.851
		c1.16-1.87,3.09-0.54,4.76-0.149c11.19,2.601,20.98,7.92,30.19,14.681c8.73,6.39,18.65,8.38,29.36,6.359
		c11.6-2.189,16.96-8.091,17.11-19.729c0.04-3.9,1.44-6.62,4.29-9.061c5.57-4.75,8.87-10.899,9.42-18.159
		c0.33-4.41-0.09-8.932-0.68-13.33c-0.54-4.102-0.23-7.681,2.73-10.841c3.35-3.569,4.71-8.021,4.93-12.8
		c0.46-9.761-0.87-19.051-7.67-26.74c-2.4-2.721-3.2-5.561-1.66-9.101c1.86-4.3,1.39-8.71-0.06-13.109
		c-1.74-5.34-4.84-9.88-9.05-13.351c-8.7-7.17-17.5-14.271-26.69-20.779c-8.83-6.261-18.89-9.979-29.74-11.141
		c-7.33-0.779-14.71-1.22-22.04-2C137.916,858.49,120.966,861.74,104.696,869.2z"/>
	<path d="M96.346,865.391c1.84,5.631,2.92,6.311,8.35,3.811c16.27-7.46,33.22-10.71,51.1-8.79c7.33,0.78,14.71,1.221,22.04,2
		c10.85,1.16,20.91,4.88,29.74,11.141c9.19,6.511,17.99,13.609,26.69,20.779c4.21,3.471,7.31,8.011,9.05,13.351
		c1.45,4.399,1.92,8.811,0.06,13.109c-1.54,3.54-0.74,6.38,1.66,9.101c6.8,7.689,8.13,16.979,7.67,26.74
		c-0.22,4.779-1.58,9.229-4.93,12.8c-2.96,3.16-3.27,6.739-2.73,10.841c0.59,4.398,1.01,8.92,0.68,13.329
		c-0.55,7.261-3.85,13.41-9.42,18.16c-2.85,2.439-4.25,5.159-4.29,9.061c-0.15,11.64-5.51,17.54-17.11,19.729
		c-10.71,2.021-20.63,0.029-29.36-6.359c-9.21-6.761-19-12.08-30.19-14.681c-1.67-0.391-3.6-1.721-4.76,0.149
		c-0.79,1.28-1,3.351-0.63,4.851c1.69,6.79,3.75,13.479,5.56,20.239c2.93,11.021,2.95,22.33,3.23,33.61
		c0.01,0.33-0.32,0.68-0.76,1.55c-5.91,0-12.11,0.28-18.25-0.149c-2.31-0.16-4.46-2.091-6.76-3.011c-3.97-1.58-8.03-2.96-12.02-4.5
		c-10.81-4.17-19.64-10.909-26.22-20.521c-7.46-10.899-15.26-21.6-22.31-32.771c-8.26-13.09-12.24-27.729-12.82-43.13
		c-0.46-12.239-0.29-24.51-0.11-36.76c0.18-12.53,4.06-24.04,10.28-34.851c4.48-7.79,9.35-15.261,16.03-21.38
		c2.56-2.341,2.54-4.78,1.13-7.851c-8.98-19.46-15.9-39.66-20.83-60.511c-3.7-15.63-10.17-30.17-16.77-44.689
		c-1.85-4.069-3.74-8.13-5.35-12.3c-0.75-1.95-1.14-4.13-1.22-6.229c-0.21-4.931,1.98-7.391,6.95-7.12c3,0.16,5.98,1.391,8.86,2.45
		c1.98,0.729,3.71,2.149,5.68,2.939c2.49,1,4.36-0.28,4.12-2.979c-0.22-2.49-0.86-4.99-1.68-7.359c-1.46-4.221-3.62-8.24-4.71-12.54
		c-1.08-4.271-1.61-8.78-1.64-13.19c-0.03-3.92,2.18-5.869,6.04-5.29c3.56,0.53,7.09,1.891,10.36,3.45
		c2.77,1.32,5.14,3.49,7.75,5.181c1.07,0.699,2.32,1.149,3.25,1.601c2.23-1.12,2.23-2.71,1.57-4.19
		c-1.26-2.829-2.64-5.619-4.19-8.29c-2.39-4.119-4.26-8.3-3.56-13.239c0.57-4.011,2.48-5.771,6.55-5.931
		c4.88-0.188,9.32,1.312,13.14,4.12c16.96,12.521,35.96,21.681,53.71,32.851c14.97,9.42,29.27,19.899,43.96,29.779
		c28.88,19.431,58.28,38.04,88.61,55.181c20.66,11.681,40.73,24.33,60.07,38.12c8.54,6.101,17.28,11.92,25.96,17.819
		c1.229,0.84,2.62,1.45,4.689,2.58c0.44-2.22,1.04-3.83,1.021-5.43c-0.38-23.53,1.36-47.11-1.15-70.591
		c-2.54-23.771-5.569-47.471-11.45-70.739c-6.39-25.28-13.899-50.221-23.64-74.391c-3.76-9.33-8.979-18.101-13.96-26.881
		c-4.979-8.789-10.6-17.22-15.7-25.949c-2.439-4.159-5.67-5.859-10.479-5.891c-7.96-0.04-15.99-0.069-23.82-1.22
		c-5.06-0.74-10.03-3.05-14.68-5.38c-8.07-4.051-9.98-11.9-11.04-20.021c-2.15-16.43-2.09-32.97-2.3-49.49
		c-0.02-2.34,0.07-4.67,0.03-7c-0.41-26.09,0.87-52.109,3.08-78.09c0.33-3.83,1.16-7.7,2.33-11.38c1.56-4.91,4.88-8.479,10.17-9.43
		c6.29-1.12,12.62-2.53,18.97-2.76c27.99-1.021,55.99-2.29,83.98-2.28c33.85,0.01,67.7,1.05,101.54,2.02
		c11.05,0.311,20.74,5.34,29.02,12.29c5.101,4.28,7.36,10.65,5.53,17.49c-1.45,5.42,0.09,10.42,1.28,15.49
		c0.31,1.319,1.59,2.42,2.74,4.08c1.649-1.25,2.949-2.011,3.979-3.051c4.46-4.5,9.83-6.76,16.12-7.14
		c8.08-0.49,15.881,0.25,23.28,3.96c3.75,1.87,5.601,0.88,5.91-3.24c0.87-11.75,5.779-22.109,10.649-32.51
		c3.59-7.68,10.04-11.05,18.061-11.95c2.689-0.31,5.439-0.16,8.16-0.34c8.909-0.57,17.819-1.24,26.739-1.79
		c4.47-0.27,8.939-0.54,13.409-0.53c21.4,0.03,42.811-0.04,64.211,0.32c22.75,0.39,45.489,1.45,68.239,1.771
		c14.229,0.21,28.899,11.069,32.08,23c0.689,2.609,1.229,5.34,1.24,8.02c0.13,22.37,0.159,44.75,0.119,67.12
		c-0.04,18.29-0.029,36.59-0.47,54.87c-0.141,5.971-1.311,11.971-2.591,17.82c-1.09,4.97-4.3,8.489-9.17,10.6
		c-12.42,5.391-25.39,6.971-38.779,6.141c-4.08-0.25-8.16-0.319-12.25-0.33c-3.351-0.01-5.971,1.399-7.67,4.431
		c-9.25,16.42-18.771,32.699-27.729,49.29c-8.46,15.659-13.601,32.58-17.48,49.92c-2.59,11.561-5.67,23.021-8.279,34.58
		c-3.681,16.37-5.229,33.05-5.67,49.779c-0.721,27.609-0.891,55.24-1.279,82.859c-0.09,6.221-0.2,12.45-0.17,18.67
		c0.01,1.4,0.58,2.79,1,4.681c1.68-0.649,2.3-0.739,2.729-1.08c21.21-16.439,43.29-31.67,65.24-47.069
		c17.18-12.05,34.58-23.859,52.479-34.78c16.08-9.818,33.091-18.109,49.5-27.398c29.79-16.852,59.681-33.48,90.311-48.79
		c15.649-7.82,31.22-15.801,46.76-23.851c3.78-1.961,7.351-4.37,10.86-6.801c4.069-2.819,8.46-4.8,13.27-5.8
		c3.19-0.66,6.312-0.46,8.421,2.46c1.989,2.771,1.841,5.58,0.341,8.76c-3.312,7.021-6.301,14.19-9.23,21.381
		c-0.67,1.63-0.569,3.569-0.99,6.55c3.021-0.811,5.102-1.021,6.82-1.909c2.74-1.42,5.13-3.54,7.9-4.92
		c3.778-1.9,7.64-4.03,11.71-4.881c7.449-1.551,11.329,2.899,9.09,10.141c-1.431,4.62-3.38,9.12-5.53,13.47
		c-12.63,25.601-21.01,52.681-28.359,80.141c-4.319,16.141-8.761,32.25-12.939,48.421c-1.21,4.68-2.03,9.52-2.44,14.329
		c-0.46,5.431,0.341,6,5.61,7.841c8.359,2.93,15.7,7.42,22,13.779c5.59,5.641,7.93,12.829,10.6,19.899
		c2.921,7.74,4.04,15.84,3.932,24.05c-0.182,13.591-0.28,27.21-1.142,40.771c-0.869,13.648-6.108,26.029-13.02,37.71
		c-7.86,13.29-17.22,25.45-28.21,36.279c-11.131,10.971-24.41,17.761-40.07,19.681c-2.38,0.29-4.64,1.5-6.96,2.3
		c-0.54,0.19-1.069,0.57-1.609,0.57c-4.409,0.05-8.83,0.029-14.061,0.029c3.439-17.391,6.58-34.011,10.979-51.189
		c-2.619,0-4.38-0.34-5.939,0.06c-12.05,3.062-24.11,6.07-36.04,9.54c-4.62,1.352-8.89,3.88-13.34,5.82
		c-10.471,4.57-20.561,4.07-29.63-3.17c-5.892-4.7-8.642-11.08-6.341-18.64c1.761-5.812,1.13-11.12-1.689-16.33
		c-2.47-4.58-2.25-9.352-0.851-14.15c0.66-2.24,1.511-4.42,2.341-6.6c1.38-3.62,2.29-7.03-1.551-9.961
		c-0.899-0.689-1.449-2.471-1.38-3.71c0.38-6.761-0.41-13.739,2.391-20.141c1.699-3.88,3.58-7.89,6.31-11.029
		c3.521-4.04,5.4-8.54,6.11-13.58c2.41-17.131,12.12-28.641,27.31-36c4.9-2.369,9.852-4.641,14.801-6.909
		c12.37-5.65,25.391-8.5,38.979-8.74c8.36-0.141,16.72-0.271,25.08-0.25c2.311,0.01,4.62,0.63,6.93,0.92
		c4.11,0.51,5.24-0.22,6.091-4.25c1.189-5.71,1.949-11.53,3.449-17.15c2.86-10.698,6.08-21.31,9.19-31.938
		c2.24-7.641,4.438-15.3,6.85-22.891c4.95-15.561,9.94-31.109,15.102-46.591c1.34-4.04,3.479-7.8,5.068-11.76
		c1.15-2.83,1.021-2.89-0.29-7.149c-1.38,0.369-2.92,0.511-4.17,1.17c-21.199,11.189-43.87,18.971-65.71,28.681
		c-16.16,7.17-32.16,14.75-48.069,22.45c-26.949,13.05-53.92,26.068-80.63,39.579c-34.021,17.199-67.5,35.351-99.061,56.921
		c-23.439,16.02-47.88,30.5-72.21,45.14c-15.141,9.11-29.271,19.87-43.91,29.8c-16.899,11.46-33.85,22.83-50.79,34.23
		c-1.77,1.188-3.689,2.17-5.439,3.398c-4.57,3.25-7.08,7.352-6.551,13.352c1.28,14.33,2.432,28.67,3.16,43.029
		c0.471,9.079,0.211,18.669,0.211,28.159h-14.229c-0.28-4.67-0.593-9.92-0.763-14.699c-0.489-14.189-0.78-28.381-2.91-42.471
		c-0.64-4.199-0.279-8.55-0.449-12.818c-0.16-4.03-1.561-7.262-5.9-8.32c-10.58-2.58-19.61-8.45-28.84-13.79
		c-43.43-25.11-86.67-50.55-130.18-75.521c-11.771-6.761-24.271-12.239-36.41-18.359c-6.08-3.062-12.3-5.9-18.09-9.45
		c-13.97-8.55-28.51-15.87-43.64-22.13c-17.64-7.3-34.47-16.271-50.5-26.601c-11.21-7.21-23.21-12.681-35.48-17.561
		c-10.17-4.03-19.9-8.81-29.33-14.28c-13.98-8.108-28.49-15.119-43.34-21.47c-9.29-3.97-18.36-8.439-27.55-12.62
		c-2.4-1.1-4.89-1.979-8.12-3.27c0,2.34-0.36,3.88,0.05,5.159c5.46,16.83,11.01,33.619,16.56,50.421
		C86.806,836.61,91.646,850.98,96.346,865.391z M1013.427,989.75c2.391-14.239,2.71-28.649,2.489-43.04
		c-0.109-7.569-0.569-15.17-1.529-22.68c-0.99-7.79-4.74-14.439-11.011-19.3c-11.619-9.011-24.659-14.9-39.46-15.95
		c-17.35-1.24-34.609-0.45-51.56,3.88c-11.521,2.939-21.74,8.33-30.36,16.62c-1.489,1.439-3.189,2.8-2.68,5.739
		c1.449-0.22,2.779-0.239,3.979-0.64c4.421-1.471,8.86-2.939,13.19-4.66c12.89-5.109,26.021-9.021,40.029-9.729
		c16.069-0.82,31.439,1.18,45.49,9.609c1.649,0.99,3.229,2.181,4.649,3.479c1.949,1.79,2.13,4.04,1.09,6.41
		c-0.97,2.22-2.83,3.53-5.069,3.2c-2.409-0.351-5.131-0.94-6.971-2.381c-7.029-5.46-15.09-7.18-23.6-6.88
		c-9.312,0.319-18.61,1.189-27.9,1.95c-2.5,0.21-5.08,0.569-7.41,1.43c-10.579,3.87-21.229,7.57-31.56,12.021
		c-12.9,5.561-22.74,14.78-29.46,27.181c-0.66,1.21-0.87,2.659-1.28,4.01c0.351,0.271,0.71,0.551,1.07,0.83
		c1.31-0.931,2.64-1.84,3.949-2.789c2.819-2.051,5.37-4.66,8.479-6.08c9.53-4.37,19.2-8.461,28.96-12.29
		c3.75-1.48,7.86-2.221,11.87-2.83c22.16-3.4,43.359,0.39,63.86,8.909c1.739,0.729,3.569,1.74,4.819,3.101
		c2.851,3.11,1.819,7.11-2.271,8.141c-2.931,0.729-6.271,1.069-9.181,0.431c-6.04-1.32-12-3.2-17.859-5.221
		c-6.479-2.239-13.021-4.33-19.91-3.811c-13.21,0.99-26.271,2.92-38.689,7.95c-16.38,6.64-28.989,17.2-35.45,34.13
		c-0.869,2.28-2.229,4.55-1.09,7.07c0.62,0.1,1.101,0.34,1.351,0.188c0.97-0.6,1.92-1.25,2.8-1.989
		c7.351-6.261,15.63-10.971,24.95-13.41c12.399-3.25,24.87-6.289,37.439-8.75c5.05-0.989,10.62-1.05,15.63-0.01
		c8.721,1.811,17.24,4.63,25.71,7.439c2.21,0.729,4.32,2.7,5.78,4.63c3.109,4.101,1,8.101-4.149,8.41
		c-5.98,0.359-11.58-1.271-16.96-3.58c-9.812-4.21-20-4.771-30.351-3.33c-15.841,2.2-30.229,8.721-44.131,16.149
		c-6.739,3.601-12.08,9.131-14.529,16.841c-2.62,8.239,0.87,13.189,9.489,13.85c5.82,0.45,10.73-1.8,15.36-4.64
		c5.569-3.42,11.59-5.38,17.84-6.92c5.09-1.271,10.13-2.721,15.2-4.061c3.75-0.979,7.479-2.16,11.3-2.811
		c9.95-1.71,19.78-1.2,29.221,2.74c5.811,2.43,10.3,6.199,11.949,12.63c0.971,3.77,0.17,6.689-2.37,8.319
		c-2.409,1.54-4.52,0.989-7.729-1.88c-1.19-1.069-2.53-1.971-4.381-3.399c-1.83,5.039-3.391,9.14-4.83,13.289
		c-1.76,5.131-3.75,10.211-5.029,15.461c-1.061,4.31,0.67,5.569,4.55,3.81c12.051-5.46,24.051-10.979,34.649-19.109
		c5.791-4.439,11.141-9.061,13.881-16.101c0.84-2.149,2.369-4.029,3.41-6.109c3.479-6.939,7.188-13.79,10.199-20.939
		C1011.257,999.681,1012.597,994.69,1013.427,989.75z M990.706,710.351c0.971-1.681,2.29-3.22,0.71-6.04
		c-1.189,0.211-2.38,0.211-3.359,0.649c-4.439,1.98-8.939,3.86-13.199,6.181c-20.15,10.939-40.221,22.021-60.32,33.051
		c-13.46,7.38-26.891,14.81-40.38,22.14c-11.78,6.4-23.79,12.391-35.391,19.101c-18.33,10.62-36.449,21.591-54.54,32.62
		c-7.779,4.75-15.25,10.021-22.819,15.119c-0.8,0.54-1.28,1.53-1.91,2.312c1.7,0.25,2.91-0.141,4.021-0.721
		c19.631-10.261,39.261-20.5,58.851-30.819c17.891-9.41,35.67-19.03,53.641-28.29c8.46-4.351,17.159-8.26,25.909-12
		c13.4-5.73,26.88-11.26,40.42-16.65c9.91-3.949,19.011-9.779,29.53-12.359c4.54-1.109,7.53-4.659,9.83-8.649
		C984.717,720.78,987.677,715.54,990.706,710.351z M790.467,432.11c0.13-12.28-6.421-19.7-18.49-21.19
		c-4.05-0.5-8.13-0.939-12.199-0.99c-29.96-0.319-59.92-0.66-89.87-0.729c-23.74-0.061-47.479,0.43-71.21,0.31
		c-7.12-0.029-12.431,2.59-16.479,8.11c-1.609,2.18-3.061,4.54-4.16,7.01c-4.609,10.38-7.391,21.45-8.601,32.57
		c-1.311,12.13-0.739,24.49-0.6,36.74c0.239,19.659,3.109,39.13,4.68,58.688c0.729,8.95,5.29,13.381,12.7,16.061
		c3.409,1.25,7.149,2.141,10.771,2.229c28.199,0.69,56.399,1.15,84.609,1.671c27.24-0.311,54.47-0.601,81.7-0.96
		c2.909-0.04,5.85-0.229,8.699-0.75c10.391-1.91,15.96-8.04,17.029-18.551c0.181-1.74,0.15-3.5,0.16-5.25
		c0.03-7.2-0.021-14.4,0.07-21.601C789.656,494.36,790.126,463.24,790.467,432.11z M710.688,591.99
		c0.68-1.28,1.18-2.649,2.188-4.931c-2.68-0.43-4.17-0.829-5.67-0.869c-10.689-0.311-21.38-0.61-32.069-0.761
		c-12.261-0.181-24.521-0.101-36.779-0.29c-17.5-0.29-35-0.689-52.5-1.12c-8.181-0.199-14.891-3.561-18.78-10.829
		c-2.439-4.561-4.45-9.61-5.34-14.681c-1.41-8.001-1.82-16.2-2.49-24.331c-0.5-6.2-0.479-12.45-1.17-18.62
		c-1.601-14.159-2.189-28.31-1.03-42.52c0.221-2.7,0.211-5.45-0.06-8.14c-0.521-5.221-3.391-8.94-8.601-9.69
		c-5.13-0.74-10.471-1.18-15.591-0.61c-10.56,1.171-17.6,7.4-21.86,17.03c-1.869,4.22-2.239,8.61-2.26,13.11
		c-0.08,20.239-0.13,40.47-0.29,60.71c-0.08,11.01-2.2,21.189-11.22,28.891c-6.78,5.8-14.61,9.159-23.23,9.75
		c-16.479,1.141-33,1.8-49.51,2.101c-31.899,0.59-63.81,0.77-95.71,1.18c-1.77,0.03-3.53,0.7-6.17,1.25
		c1.4,2.7,2.25,4.561,3.29,6.32c9.17,15.579,18.87,30.859,27.45,46.76c12.06,22.37,19.5,46.55,25.7,71.12
		c4.239,16.79,7.77,33.71,9.67,50.949c0.99,8.881,2.3,17.729,3.609,26.58c0.891,6.021,1.42,6.979,7.181,6.681
		c1.54-0.08,3.1,0.311,4.649,0.3c28.801-0.16,57.59-0.42,86.391-0.51c50.01-0.16,100.021-0.2,150.021-0.36
		c3.88-0.01,7.789-0.31,11.609-0.93c4.22-0.67,5.859-2.88,6.05-7.24c0.07-1.75-0.029-3.5,0.051-5.25
		c0.521-11.85,0.479-23.76,1.739-35.529c2.101-19.529,5.53-38.891,10.09-58.021c4.7-19.7,9.98-39.229,19.271-57.351
		C696.236,618.65,703.566,605.37,710.688,591.99z M651.307,891.351c5.069-3.351,7.41-7.449,6.971-13.63
		c-0.46-6.391-0.11-12.83-0.16-19.25c-0.109-13.229-0.05-26.46-0.439-39.681c-0.29-9.62-0.569-9.6-10.45-9.59
		c-42.989,0.04-85.979,0.061-128.971,0.109c-38.71,0.04-77.42,0.091-116.14,0.2c-2.42,0.01-4.851,0.54-7.49,0.859
		c0,2.32-0.05,4.03,0.01,5.729c0.29,8.16,0.931,16.311,0.82,24.46c-0.12,9.521-0.61,19.061-1.5,28.551
		c-0.55,5.85,1.27,9.92,5.83,13.58c16.359,13.17,32.28,26.88,48.78,39.85c11.29,8.87,23.239,16.91,34.96,25.229
		c11.399,8.091,23.409,15.351,33.779,24.881c2.4,2.21,5.34,3.85,8.101,5.64c2.25,1.45,4.149,1.021,6.29-0.779
		c3.08-2.609,6.569-4.761,9.93-7.04c2.561-1.75,5.28-3.271,7.78-5.109c25.05-18.42,50.029-36.95,75.109-55.32
		C633.307,903.61,642.236,897.36,651.307,891.351z M496.266,449.36c0.011-4.66,0.061-9.341-0.16-14
		c-0.699-14.61-11.699-21.66-22.76-23.28c-3.449-0.51-6.979-0.7-10.47-0.7c-42.8-0.01-85.6-0.24-128.39,0.2
		c-17.28,0.18-34.561,1.75-51.811,2.939c-7.72,0.53-12.76,4.891-15.55,12.15c-3.07,8-3.23,16.43-3.53,24.72
		c-0.81,21.96-0.75,43.95-1.57,65.91c-0.5,13.53,2.17,26.7,3.28,40.05c0.45,5.391,3.58,9.221,8.18,12.061
		c4.51,2.79,9.37,3.5,14.52,3.49c30.15-0.04,60.311-0.011,90.46-0.011c0-0.33,0-0.649,0-0.979c30.72-0.149,61.45-0.24,92.17-0.569
		c3.8-0.04,7.8-0.881,11.311-2.311c7.989-3.28,12.84-9.189,13.199-18.22c0.11-2.91,0.681-5.812,0.7-8.711
		C496.026,511.18,496.146,480.271,496.266,449.36z M387.186,911.891c0.261-0.431,0.521-0.859,0.78-1.279
		c-2.569-1.891-4.99-4.061-7.75-5.62c-10.479-5.899-21.18-11.42-31.609-17.41c-19.04-10.93-38.051-21.91-56.871-33.199
		c-16.66-9.99-32.79-20.91-49.63-30.58c-20.89-11.989-42.18-23.311-63.48-34.569c-21.32-11.28-42.34-23.021-62.05-36.98
		c-10.2-7.22-20.97-13.34-32.58-17.979c-1.79-0.721-3.42-2.062-6,0.17c0.48,1.51,1.03,2.92,1.37,4.38
		c0.79,3.399,2.58,7.021,1.99,10.18c-1.21,6.53,2.38,8.7,7.28,10.471c2.01,0.721,3.97,1.58,5.98,2.311
		c10.82,3.899,20.96,9.16,31.01,14.74c14.93,8.3,30.02,16.369,45.41,23.79c29.59,14.27,59.11,28.63,87.88,44.52
		c20.75,11.46,41.52,22.92,62.49,33.96c17.689,9.32,35.689,18.04,53.56,27.021C379.036,907.851,383.116,909.86,387.186,911.891z
		 M329.276,856.891c1.27,0.721,2.67,2.24,4.89,0.779c-1.25-1.159-2.14-2.18-3.22-2.939c-7.3-5.149-14.71-10.149-21.94-15.39
		c-21.76-15.75-44.36-30.189-67.53-43.771c-21.47-12.57-42.92-25.2-63.99-38.42c-17.44-10.961-34.28-22.881-51.47-34.261
		c-6.76-4.471-13.74-8.62-20.63-12.92c-0.49,0.25-0.98,0.5-1.48,0.75c0.06,1.21-0.09,2.47,0.21,3.609
		c0.69,2.63,1.99,5.149,2.33,7.811c0.61,4.88,3.63,7.391,7.58,9.569c6.96,3.851,13.8,7.931,20.63,12.011
		c6.34,3.79,12.49,7.92,18.94,11.521c20.2,11.29,40.72,22.021,60.72,33.66c29.57,17.21,58.78,35.039,88.18,52.55
		C311.346,846.721,320.306,851.82,329.276,856.891z M241.656,952.41c0.28-4.95-1.47-9.33-5-12.63
		c-6.53-6.08-13.06-12.229-20.18-17.57c-5.38-4.05-11.42-7.5-17.62-10.14c-16.82-7.181-34.75-7.801-52.7-7.53
		c-4.81,0.08-9.61,0.92-14.89,1.45c-1.4-5.03,0.51-8.229,3.56-10.91c3.48-3.061,7.7-4.58,12.27-4.8c14.27-0.7,28.38,0.62,42.21,4.18
		c13.09,3.37,25.1,9.33,36.7,16.141c0.94,0.551,1.98,0.899,3.77,1.71c-0.32-1.989-0.13-3.5-0.78-4.38
		c-2.07-2.779-4.05-5.899-6.8-7.851c-7.76-5.479-15.66-10.88-23.97-15.47c-6.41-3.54-13.34-6.471-20.38-8.49
		c-12.81-3.689-25.94-4.16-39.28-2.72c-12.88,1.38-24.47,5.979-35.49,12.29c-2.77,1.59-5.08,4.22-7.11,6.77
		c-3.99,5.021-7.7,10.261-11.4,15.511c-7.24,10.25-11.77,21.521-11.58,34.221c0.2,13.21,0.61,26.42,1.38,39.609
		c0.73,12.399,4.47,24.08,10.75,34.779c7.11,12.12,15.8,23.12,25.63,33.141c7.88,8.051,17.38,13.66,28.11,17.141
		c3.86,1.25,5.76,0.1,5.55-3.851c-0.32-6.011-0.44-12.149-1.84-17.949c-1.62-6.75-4.51-13.19-6.87-19.761
		c-1.97-5.521-2.93-5.92-8.47-3.569c-3.26,1.39-5.39,0.96-7.84-1.601c-3.44-3.591-3.19-9.739,0.98-12.939
		c2.24-1.721,5.07-3.271,7.8-3.641c16.28-2.21,32.25-1.609,46.88,7.189c3.32,2,6.55,4.16,9.81,6.26c3.27,2.11,6.38,4.49,9.8,6.312
		c6.11,3.229,12.53,3.89,19.15,1.34c5.41-2.08,7.12-5.54,5.32-10.98c-1.55-4.68-5.01-7.81-8.79-10.6
		c-5.62-4.16-11.21-8.41-17.12-12.14c-5.23-3.29-10.72-6.28-16.38-8.74c-9.47-4.12-19.74-4.021-29.81-4.521
		c-9.98-0.5-19.67,1.99-29.41,3.78c-1.35,0.25-2.76,0.15-5,0.25c3.57-7.06,8.14-11.58,14.28-14.41
		c13.04-6.01,26.83-5.88,40.63-4.199c4.95,0.591,9.9,2.141,14.54,4c13.13,5.271,24.26,13.851,35.3,22.46
		c2.22,1.729,3.59,4.529,5.42,6.771c1.4,1.71,2.92,3.311,5.03,5.68c1.86-2.869,3.47-4.77,4.46-6.96
		c4.6-10.238,2.7-20.51-6.26-28.608c-5.87-5.312-12.48-9.91-19.22-14.091c-11.44-7.091-24.25-10.521-37.56-11.609
		c-7.92-0.641-15.93-0.22-23.91-0.23c-5.82-0.01-11.65,0.021-17.48,0.08c-1.97,0.021-3.46-0.46-3.65-2.729
		c4.25-5.92,11.47-10.7,18.03-11.78c12.39-2.04,24.84-1.06,37.26-0.51c3.81,0.17,7.62,1.42,11.34,2.479
		c9.66,2.73,18.04,8.13,26.48,13.302c7.31,4.47,14.49,9.14,19.65,16.25c0.39,0.528,1.24,0.729,1.79,1.039
		C241.416,957.12,241.526,954.721,241.656,952.41z"/>
</g>
<g id="jacobin_text">
	<path d="M651.049,946.983c-1.45,0.951-2.897,1.906-4.343,2.863c-9.801,6.496-19.271,12.693-28.188,18.392
		c-0.554,0.354-1.108,0.71-1.664,1.065c0.559,3.739,1.115,7.479,1.674,11.22c1.358-0.879,2.722-1.755,4.086-2.629
		c6.097-3.9,12.446-8.034,18.946-12.314c0.794,6.18,1.587,12.358,2.378,18.539c0.602,4.68,0.627,5.898,0.169,8.403
		c-0.958,3.708-3.532,7.432-6.474,9.335c-0.113,0.076-0.228,0.153-0.34,0.229c-0.961,0.624-1.907,1.014-2.738,1.129
		c-0.754,0.104-1.367-0.019-1.827-0.367c-0.608-0.465-1.024-1.377-1.169-2.571c-0.191-1.613-0.385-3.229-0.575-4.842
		c-1.384,0.904-2.765,1.811-4.142,2.719c-1.576,1.04-3.149,2.072-4.723,3.1c-0.54,0.354-1.079,0.706-1.619,1.06
		c0.095,0.631,0.188,1.259,0.283,1.889c1.107,7.31,6.305,11.54,12.938,10.605c2.567-0.358,5.232-1.468,7.94-3.291
		c4.726-3.188,8.394-7.427,10.898-12.618c3.271-6.685,3.146-12.687,2.489-18.185C653.717,969.47,652.384,958.227,651.049,946.983z"
		/>
	<path d="M678.938,930.229c-1.341-1.752-2.686-3.502-4.035-5.25c-0.565,2.11-1.127,4.223-1.686,6.334
		c-5.554,21.03-10.617,41.55-15.137,60.969c-0.59,2.531-1.174,5.063-1.752,7.597c2.148-1.5,4.307-2.993,6.472-4.479
		c1.71-1.175,3.423-2.355,5.143-3.541c0.317-0.22,0.638-0.439,0.956-0.659c-0.007-0.001,2.429-10.037,3.548-14.503
		c5.311-3.637,10.905-7.476,16.689-11.433c1.358,1.829,5.83,7.942,5.824,7.945c0.845-0.585,1.69-1.169,2.537-1.752
		c1.834-1.261,3.673-2.523,5.515-3.787c0.845-0.579,1.689-1.156,2.537-1.732c-0.591-0.813-1.184-1.631-1.775-2.443
		C695.258,951.794,687.116,940.918,678.938,930.229z M676.146,961.795c0.884-3.544,1.775-7.088,2.68-10.637
		c1.434,1.96,2.861,3.919,4.283,5.879C680.753,958.646,678.43,960.234,676.146,961.795z"/>
	<path d="M741.696,924.334c-3.205,6.036-8.14,11.576-13.252,14.875c-3.22,2.139-6.227,3.358-8.72,3.514
		c-4.982,0.317-6.325-3.953-6.575-7.604c-0.686-9.816,6.473-22.402,16.923-29.122c3.163-2.104,6.342-3.325,8.933-3.443
		c1.106-0.051,2.083,0.1,2.898,0.445c0.892,0.377,1.781,0.756,2.672,1.136c2.32-3.58,4.662-7.152,7.024-10.722
		c-1.119-0.461-2.237-0.92-3.357-1.379c-2.094-0.856-4.455-1.235-7.012-1.124c-4.727,0.206-9.998,2.103-15.172,5.48
		c-15.328,9.842-25.646,28.375-24.491,42.729c0.802,10.155,6.927,16.006,15.991,15.411c4.535-0.297,9.61-2.264,14.718-5.665
		c7.327-4.81,14.209-12.456,18.902-21.039c0.619-1.135,1.24-2.27,1.862-3.402c-3.398-0.754-6.803-1.495-10.214-2.22
		C742.45,922.913,742.072,923.623,741.696,924.334z"/>
	<path d="M795.116,858.88c-4.942,0.008-10.61,1.765-16.325,5.092c-16.074,9.325-27.401,27.596-26.837,42.086
		c0.376,10.032,6.268,16.037,15.379,15.814c4.717-0.113,10.108-1.947,15.656-5.286c15.345-9.276,27.42-26.863,27.606-41.314
		C810.712,865.202,804.78,858.863,795.116,858.88z M779.405,906.818c-0.282,0.176-0.563,0.351-0.845,0.526
		c-3.16,1.781-6.063,2.751-8.463,2.805h-0.001c-4.981,0.108-6.143-4.098-6.237-7.658c-0.283-9.921,7.627-22.373,18.632-28.767
		c3.556-2.069,6.854-3.167,9.519-3.179c5.131-0.019,6.203,4.271,6.199,7.859C798.185,888.3,790.003,900.432,779.405,906.818z"/>
	<path d="M850.301,851.483c1.917-2.858,3.029-5.954,3.157-9.014c0.249-5.828-3.461-9.764-9.455-9.971
		c-2.919-0.101-6.138,0.695-9.544,2.368c-5.221,2.563-10.673,5.315-16.196,8.188c-0.547,0.284-1.094,0.569-1.641,0.854
		c-0.248,17.612-0.497,35.226-0.747,52.839c1.679-0.912,3.359-1.82,5.045-2.727c6.152-3.304,11.872-6.274,17.473-9.1
		c9.986-5.044,17.652-14.943,18.059-23.706C856.71,855.46,853.783,852.521,850.301,851.483z M840.282,844.154
		c0.073,0.003,0.168,0.01,0.173,0.01c0.054,0.097,0.19,0.411,0.169,1.097c-0.103,3.088-3.224,6.999-7.08,8.927
		c-1.524,0.76-3.045,1.525-4.563,2.296c0.059-2.458,0.116-4.916,0.176-7.374c2.711-1.375,5.431-2.732,8.158-4.076
		C838.99,844.208,839.947,844.145,840.282,844.154z M828.463,878.43c0.081-3.443,0.163-6.888,0.243-10.332
		c3.293-1.692,6.597-3.362,9.912-5.009c2.164-1.073,3.492-1.198,4.09-1.178c0.525,0.018,1.18,0.041,1.116,1.841
		c-0.145,3.959-4.087,8.951-8.941,11.402C832.737,876.235,830.598,877.326,828.463,878.43z"/>
	<path d="M866.306,820.177c-0.599,0.259-1.196,0.518-1.796,0.776c-0.86,17.552-1.723,35.104-2.584,52.655
		c1.707-0.771,3.416-1.536,5.129-2.3c1.951-0.869,3.905-1.729,5.865-2.578c0.585-0.255,1.172-0.508,1.758-0.76
		c1.027-17.535,2.055-35.07,3.08-52.607c-1.781,0.735-3.56,1.476-5.335,2.219C870.38,818.438,868.341,819.302,866.306,820.177z"/>
	<path d="M935.065,795.514c-2.107,0.596-4.214,1.207-6.315,1.832c-0.696,0.207-1.392,0.415-2.088,0.623
		c-0.959,10.296-1.918,20.592-2.877,30.889c-9.687-6.609-19.975-13.162-30.666-19.503c-1.699-1.008-3.401-2.012-5.106-3.013
		c-1.261,19.201-2.521,38.404-3.78,57.606c1.706-0.688,3.415-1.369,5.128-2.048c1.974-0.783,3.951-1.556,5.934-2.315
		c0.618-0.238,1.236-0.475,1.854-0.712c0.776-10.35,1.556-20.699,2.332-31.05c10.5,6.549,20.55,13.294,29.952,20.063
		c1.662,1.197,3.32,2.396,4.975,3.602c1.966-19.147,3.933-38.295,5.897-57.442C938.557,794.531,936.81,795.021,935.065,795.514z"/>
</g>
<g id="demsocs_text">
	<g>
		<path d="M37.893,73.95H53.59c30.284,0,33.201,19.448,33.201,49.454c0,28.617-2.362,49.455-30.284,49.455H37.893V73.95z
			 M55.952,157.578c11.391-0.139,11.947-4.306,11.947-34.313c0-29.867-0.556-33.895-11.947-34.034V157.578z"/>
		<path d="M94.045,73.95h40.842v15.28h-22.782v25.283h16.809v16.114h-16.809v26.95h23.754v15.281H94.045V73.95z"/>
		<path d="M140.249,73.95h24.033l8.057,50.705h0.278l8.474-50.705h23.477v98.909h-16.114v-72.515h-0.278l-12.224,72.515H165.95
			l-12.086-72.515h-0.278v72.515H140.25L140.249,73.95L140.249,73.95z"/>
		<path d="M237.41,72.004c15.975,0,26.394,12.364,26.394,51.399c0,39.036-10.419,51.399-26.394,51.399
			c-15.976,0-26.395-12.363-26.395-51.399C211.016,84.368,221.435,72.004,237.41,72.004z M230.741,133.823
			c0,21.393,2.501,25.7,6.669,25.7s6.667-4.307,6.667-25.7v-20.837c0-21.393-2.5-25.7-6.667-25.7s-6.669,4.307-6.669,25.7V133.823z"
			/>
		<path d="M301.119,109.79c0-16.392-2.083-22.504-6.529-22.504c-3.751,0-7.501,2.5-7.501,36.118c0,32.507,1.944,36.119,7.501,36.119
			c5.973,0,7.363-9.168,7.641-23.477l15.28,0.694c0,17.226-2.5,38.063-23.615,38.063c-19.31,0-25.7-18.893-25.7-51.399
			c0-37.786,11.391-51.399,25.7-51.399c20.837,0,23.337,19.171,23.337,37.23L301.119,109.79z"/>
		<path d="M324.167,73.95h20.283c17.226,0,28.616,7.223,28.616,28.061c0,8.335-2.5,19.448-10.558,24.171l10.697,46.676h-18.199
			l-8.474-42.509h-4.308v42.509h-18.06L324.167,73.95L324.167,73.95z M342.226,115.903h3.613c6.667,0,9.167-6.668,9.167-13.753
			c0-10.697-3.89-13.753-10.001-13.753h-2.779V115.903z"/>
		<path d="M389.737,73.95h26.118l12.224,98.909h-17.365l-2.64-21.949h-14.586l-2.5,21.949h-15.143L389.737,73.95z M401.268,89.23
			h-0.277l-5.695,47.231h11.252L401.268,89.23z"/>
		<path d="M439.401,89.23h-15.559V73.95h49.176v15.28h-15.558v83.628h-18.06V89.23L439.401,89.23z"/>
		<path d="M476.216,73.95h18.06v98.909h-18.06V73.95z"/>
		<path d="M533.59,109.79c0-16.392-2.084-22.504-6.529-22.504c-3.75,0-7.5,2.5-7.5,36.118c0,32.507,1.943,36.119,7.5,36.119
			c5.974,0,7.363-9.168,7.642-23.477l15.28,0.694c0,17.226-2.5,38.063-23.615,38.063c-19.309,0-25.7-18.893-25.7-51.399
			c0-37.786,11.391-51.399,25.7-51.399c20.837,0,23.337,19.171,23.337,37.23L533.59,109.79z"/>
		<path d="M599.159,144.242c0,5.556,0,15.281,7.78,15.281c5.974,0,8.057-5.557,8.057-9.585c0-17.643-32.784-21.671-32.784-50.982
			c0-14.864,8.058-26.95,23.338-26.95c16.254,0,22.505,12.364,22.921,30.146h-16.112c0-5.557,0-14.864-7.225-14.864
			c-4.307,0-6.807,3.612-6.807,9.029c0,16.809,32.783,22.504,32.783,51.26c0,15.143-8.612,27.228-24.866,27.228
			c-19.311,0-23.199-16.948-23.199-30.562L599.159,144.242L599.159,144.242z"/>
		<path d="M660.493,72.004c15.976,0,26.394,12.364,26.394,51.399c0,39.036-10.418,51.399-26.394,51.399
			c-15.977,0-26.396-12.363-26.396-51.399C634.099,84.368,644.518,72.004,660.493,72.004z M653.824,133.823
			c0,21.393,2.501,25.7,6.669,25.7c4.167,0,6.667-4.307,6.667-25.7v-20.837c0-21.393-2.5-25.7-6.667-25.7
			c-4.168,0-6.669,4.307-6.669,25.7V133.823z"/>
		<path d="M724.203,109.79c0-16.392-2.084-22.504-6.529-22.504c-3.751,0-7.501,2.5-7.501,36.118c0,32.507,1.944,36.119,7.501,36.119
			c5.974,0,7.362-9.168,7.642-23.477l15.279,0.694c0,17.226-2.5,38.063-23.616,38.063c-19.31,0-25.698-18.893-25.698-51.399
			c0-37.786,11.391-51.399,25.698-51.399c20.839,0,23.339,19.171,23.339,37.23L724.203,109.79z"/>
		<path d="M747.069,73.95h18.06v98.909h-18.06V73.95z"/>
		<path d="M783.134,73.95h26.116l12.225,98.909H804.11l-2.639-21.949h-14.588l-2.5,21.949h-15.142L783.134,73.95z M794.664,89.23
			h-0.277l-5.695,47.231h11.252L794.664,89.23z"/>
		<path d="M825.99,73.95h18.059v83.628h23.061v15.281H825.99V73.95z"/>
		<path d="M871.805,73.95h18.061v98.909h-18.061V73.95z"/>
		<path d="M911.535,144.242c0,5.556,0,15.281,7.78,15.281c5.974,0,8.057-5.557,8.057-9.585c0-17.643-32.784-21.671-32.784-50.982
			c0-14.864,8.057-26.95,23.338-26.95c16.254,0,22.505,12.364,22.921,30.146h-16.113c0-5.557,0-14.864-7.224-14.864
			c-4.307,0-6.808,3.612-6.808,9.029c0,16.809,32.784,22.504,32.784,51.26c0,15.143-8.612,27.228-24.866,27.228
			c-19.311,0-23.199-16.948-23.199-30.562L911.535,144.242L911.535,144.242z"/>
		<path d="M958.521,89.23h-15.561V73.95h49.177v15.28h-15.559v83.628h-18.06V89.23H958.521z"/>
		<path d="M1010.156,144.242c0,5.556,0,15.281,7.779,15.281c5.975,0,8.058-5.557,8.058-9.585c0-17.643-32.784-21.671-32.784-50.982
			c0-14.864,8.057-26.95,23.338-26.95c16.254,0,22.505,12.364,22.921,30.146h-16.114c0-5.557,0-14.864-7.223-14.864
			c-4.307,0-6.808,3.612-6.808,9.029c0,16.809,32.784,22.504,32.784,51.26c0,15.143-8.613,27.228-24.866,27.228
			c-19.311,0-23.199-16.948-23.199-30.562L1010.156,144.242L1010.156,144.242z"/>
	</g>
</g>
</svg>
